<?xml version="1.0" encoding="UTF-8" standalone="no"?>
<svg xmlns="http://www.w3.org/2000/svg" xmlns:xlink="http://www.w3.org/1999/xlink" width="378.839mm" height="80.000mm" viewBox="-290.000000 210.000000 378.839233 80.000000">
    <path transform="matrix(-1,0,0,1,0,0)" style="stroke:none;fill:#000000;fill-rule:evenodd" d="M290,250C290,227.908615,272.0914,210,250,210C227.908615,210,210,227.908615,210,250C210,272.0914,227.908615,290,250,290C272.0914,290,290,272.0914,290,250zM251.932495,212.402344L253.844238,212.548279C273.789246,214.592224,288.63092,231.909668,287.597656,251.932495C286.533997,272.699524,268.834229,288.668518,248.067566,287.597656C228.050537,286.572998,212.348938,270.043335,212.352966,250C212.347717,229.956421,228.05011,213.426025,248.067566,212.402344C249.355042,212.336548,250.64502,212.336304,251.932495,212.402344zM259.412384,250.000687C259.412384,244.802719,255.198578,240.588928,250.00061,240.588928C244.802643,240.588928,240.588852,244.802719,240.588852,250.000687C240.588852,255.198654,244.802643,259.412445,250.00061,259.412445C255.198578,259.412445,259.412384,255.198654,259.412384,250.000687zM235.969116,227.333984L237.008301,227.408691C241.313416,227.953003,245.47113,229.330994,249.249207,231.465454C259.232971,236.796875,267.440735,244.930115,272.862488,254.865051C274.33136,257.703064,275.324646,260.762817,275.803101,263.922363C275.51416,264.187134,275.154053,264.359375,274.769104,264.432495C274.336914,264.535583,273.882141,264.482117,273.485229,264.282532L273.429504,263.899414C272.754822,260.004272,271.265381,256.295471,269.059082,253.01532C262.917847,243.202881,253.832092,235.582764,243.100342,231.243713C240.227722,230.161865,237.175781,229.635864,234.10675,229.693848C232.812866,229.787781,231.548584,230.126465,230.380859,230.69165C228.684387,231.644226,227.52655,233.330994,227.249573,235.256836C226.904907,237.280273,227.046387,239.356628,227.661438,241.314941C228.591797,244.786194,230.120056,248.068726,232.177734,251.015076C238.125916,260.039673,246.574707,267.135559,256.491272,271.434998C259.014282,272.434021,261.65979,273.09021,264.357239,273.385803C264.986267,273.432495,265.61792,273.432434,266.246582,273.380676L266.417175,273.581726C266.861511,274.198242,266.957886,274.999939,266.67395,275.704895C264.835327,275.863037,262.983276,275.718872,261.190857,275.279785C257.340637,274.457153,253.64978,273.013855,250.262573,271.007019C240.786255,265.659912,232.998047,257.764038,227.781494,248.21521C226.14209,245.073059,225.103333,241.652832,224.719116,238.129639C224.59198,236.168335,224.924683,234.204712,225.691101,232.394897C226.78833,230.118225,228.834229,228.441284,231.282776,227.81543C232.809021,227.404907,234.391357,227.241882,235.969116,227.333984z"/>
    <path transform="matrix(-1,0,0,1,0,0)" style="stroke:none;fill:#000000;fill-rule:evenodd" d="M95.128838,234.905746L86.924736,234.905746L86.924736,227.719711L95.128838,227.719711L95.128838,234.905746z"/>
    <path transform="matrix(-1,0,0,1,0,0)" style="stroke:none;fill:#000000;fill-rule:evenodd" d="M28.358818,257.901367L28.598076,257.901367L49.258232,230.354477L56.503838,230.354477L56.503838,271.554688L48.479424,271.554688L48.71917,244.008286L48.479424,244.008286L27.700127,271.554688L20.573662,271.554688L20.573662,230.354477L28.598076,230.354477L28.358818,257.901367z"/>
    <path transform="matrix(-1,0,0,1,0,0)" style="stroke:none;fill:#000000;fill-rule:evenodd" d="M77.642998,242.331528L83.152275,242.331528L83.152275,248.080063L77.642998,248.080063L77.642998,261.973145C77.666504,263.31485,77.508492,264.653717,77.173271,265.953125C76.912903,266.984741,76.43174,267.947723,75.763115,268.775391C75.102768,269.539795,74.271812,270.137909,73.337334,270.521484C72.170403,270.996765,70.940323,271.298767,69.685966,271.417969C68.808311,271.512512,67.926117,271.558136,67.043388,271.554688L62.731865,271.554688L62.731865,265.32666L66.085381,265.32666C66.830887,265.354919,67.575111,265.239838,68.277275,264.987793C69.009377,264.704651,69.56118,264.08728,69.760674,263.328125C69.915649,262.79071,69.988899,262.233032,69.977959,261.673828L69.977959,248.080063L62.731865,248.080063L62.731865,242.331528L69.977959,242.331528L69.977959,233.468735L77.642998,233.468735L77.642998,242.331528z"/>
    <path transform="matrix(-1,0,0,1,0,0)" style="stroke:none;fill:#000000;fill-rule:evenodd" d="M94.88958,271.554688L87.164482,271.554688L87.164482,242.331528L94.88958,242.331528L94.88958,271.554688z"/>
    <path transform="matrix(-1,0,0,1,0,0)" style="stroke:none;fill:#000000;fill-rule:evenodd" d="M141.404236,241.63475C142.468033,241.685318,143.511276,241.94693,144.473083,242.404282C145.891953,243.150131,147.076035,244.274719,147.893982,245.653305C148.112457,246.011292,148.309906,246.381714,148.485291,246.76268L148.604919,246.76268L148.604919,242.331528L155.970642,242.331528L155.970642,271.554688L148.246033,271.554688L148.246033,257.601563C148.259338,256.250702,148.093506,254.903946,147.752869,253.596664C147.44664,252.357666,146.842743,251.212067,145.993591,250.259262C144.905975,249.095505,143.370483,248.454483,141.778259,248.499496C140.699326,248.524765,139.637619,248.774521,138.660583,249.232895L138.185486,249.457504L136.628357,242.810532C137.549469,242.144165,138.638489,241.747391,139.7724,241.665024C140.314392,241.607132,140.860443,241.597,141.404236,241.63475z"/>
    <path transform="matrix(-1,0,0,1,0,0)" style="stroke:none;fill:#000000;fill-rule:evenodd" d="M-73.691963,241.629868L-72.88044,241.680161C-70.36338,241.859482,-67.929237,242.656433,-65.793526,244.000473C-63.564354,245.439758,-61.815079,247.511383,-60.7696,249.95018C-59.916809,251.923401,-59.44799,254.041153,-59.388252,256.189941C-59.295464,258.176758,-59.479523,260.166901,-59.935127,262.103027C-60.377296,264.004028,-61.233429,265.78418,-62.442451,267.316406C-63.949837,269.158081,-65.947029,270.536438,-68.203682,271.29248C-69.993355,271.888977,-71.862144,272.214355,-73.748116,272.257813C-75.521858,272.339905,-77.298958,272.197998,-79.037178,271.835449C-81.002235,271.414368,-82.852837,270.573029,-84.461983,269.369141C-85.982628,268.203888,-87.151649,266.640564,-87.839424,264.852539C-88.15197,264.078064,-88.384804,263.273773,-88.534248,262.452148L-81.168526,262.452148L-81.032295,262.865234C-80.517311,264.178101,-79.554848,265.265869,-78.314522,265.937012C-77.418373,266.355835,-76.447151,266.589661,-75.458565,266.624512C-74.223167,266.729797,-72.979607,266.557404,-71.819405,266.120117C-69.953316,265.374756,-68.508186,263.847656,-67.866768,261.943359C-67.46891,260.775238,-67.249336,259.553833,-67.215401,258.320313L-88.833565,258.320313C-88.846169,257.314056,-88.841118,256.307281,-88.818428,255.301254C-88.780525,253.484589,-88.459938,251.684799,-87.868233,249.966782C-86.729698,246.718185,-84.255135,244.111938,-81.069893,242.806625C-79.493263,242.16568,-77.823875,241.782547,-76.125557,241.67186C-75.315819,241.611267,-74.503304,241.597244,-73.691963,241.629868zM-74.879463,247.248032L-75.227608,247.267075C-76.35952,247.316055,-77.456825,247.672974,-78.400948,248.299301C-79.378532,249.008759,-80.109413,250.006714,-80.490791,251.152817C-80.774498,251.960144,-80.96183,252.798111,-81.048897,253.649399L-67.455147,253.649399C-67.659172,252.490097,-68.075539,251.378265,-68.683174,250.370102C-69.329216,249.303162,-70.268608,248.444626,-71.389229,247.896957C-72.371666,247.448334,-73.441658,247.224503,-74.521553,247.241684L-74.879463,247.248032z"/>
    <path transform="matrix(-1,0,0,1,0,0)" style="stroke:none;fill:#000000;fill-rule:evenodd" d="M-44.999092,237.095688L-45.006416,238.506332C-44.991989,240.233902,-45.031891,241.961487,-45.126045,243.686508C-45.182091,244.633789,-45.259422,245.57962,-45.357979,246.523422L-45.118721,246.523422L-44.781319,245.928696C-43.647285,244.04541,-41.83078,242.671234,-39.71003,242.09227C-36.952446,241.350006,-34.035057,241.46254,-31.342842,242.415024C-28.555443,243.428589,-26.210114,245.384949,-24.712959,247.945297C-23.522415,249.966522,-22.773079,252.216873,-22.514229,254.548325C-22.204002,257.119354,-22.346626,259.724792,-22.935616,262.246582C-23.390533,264.109772,-24.209641,265.864441,-25.345772,267.409668C-27.335602,270.007568,-30.277122,271.707397,-33.521553,272.134277C-35.494568,272.402679,-37.50061,272.28714,-39.429756,271.793945C-40.549614,271.503174,-41.60907,271.01593,-42.558662,270.35498C-43.642403,269.580353,-44.521118,268.553314,-45.118721,267.362793L-45.357979,267.362793L-45.357979,271.554688L-52.723701,271.554688L-52.723701,227.719711L-44.998604,227.719711L-44.999092,237.095688zM-38.032784,247.491196L-38.423409,247.520493C-40.20163,247.694641,-41.831429,248.589569,-42.932686,249.996567C-43.832649,251.130142,-44.442123,252.4664,-44.708076,253.889145C-45.128754,256.012421,-45.105316,258.199677,-44.639229,260.313477C-44.320427,261.800964,-43.610962,263.17691,-42.584053,264.299316C-41.312752,265.679474,-39.508858,266.446564,-37.632881,266.404785C-36.240974,266.439545,-34.871918,266.044098,-33.712959,265.272461C-32.413124,264.355042,-31.44735,263.039063,-30.961983,261.523926C-30.515114,260.121063,-30.300713,258.654663,-30.327217,257.182617C-30.294014,255.536041,-30.55954,253.897064,-31.110909,252.3452C-31.621437,250.918839,-32.523209,249.664932,-33.712959,248.727036C-34.845718,247.889435,-36.224396,247.45134,-37.632881,247.48143L-38.032784,247.491196z"/>
    <path transform="matrix(-1,0,0,1,0,0)" style="stroke:none;fill:#000000;fill-rule:evenodd" d="M-1.111885,241.629379L-0.297432,241.678207C2.003967,241.841202,4.245152,242.488312,6.279228,243.577133C9.067513,245.098694,11.233715,247.55072,12.399834,250.505356C13.101852,252.275208,13.490768,254.153534,13.549248,256.056641C13.649841,258.046295,13.44582,260.039734,12.944267,261.967773C12.37735,264.119202,11.302471,266.103363,9.80999,267.753418C8.330803,269.341705,6.485508,270.543976,4.43499,271.255371C2.661839,271.868134,0.805458,272.206024,-1.069893,272.257324C-3.209118,272.365173,-5.350792,272.098999,-7.398506,271.470703C-9.954681,270.689423,-12.234245,269.193146,-13.967842,267.158691C-15.758362,264.97879,-16.889389,262.333252,-17.228096,259.532715C-17.562645,256.988586,-17.406837,254.403961,-16.769112,251.918442C-16.202461,249.766983,-15.127731,247.782806,-13.635323,246.132797C-12.156143,244.544495,-10.310829,243.342224,-8.260323,242.630844C-6.228737,241.930099,-4.091316,241.585678,-1.942451,241.612778L-1.111885,241.629379zM-2.363838,247.550766L-2.774483,247.579575C-5.001724,247.759232,-6.993469,249.038223,-8.083565,250.988754C-8.741081,252.173462,-9.154938,253.477631,-9.30085,254.824692C-9.545494,256.690125,-9.456551,258.584167,-9.038155,260.418457C-8.693542,261.937256,-7.940849,263.333405,-6.861397,264.456055C-5.668343,265.657959,-4.056831,266.352539,-2.363838,266.394531C-1.036861,266.485779,0.289757,266.210785,1.471123,265.599609C2.875496,264.803009,3.982853,263.571564,4.626396,262.09082C5.252167,260.634277,5.581337,259.067596,5.594658,257.482422C5.676651,255.833328,5.45792,254.183075,4.94915,252.612289C4.436375,251.052048,3.444263,249.69339,2.114189,248.729965C0.917744,247.923096,-0.499752,247.507813,-1.942451,247.541489L-2.363838,247.550766z"/>
    <path transform="matrix(-1,0,0,1,0,0)" style="stroke:none;fill:#000000;fill-rule:evenodd" d="M132.017517,271.554688L124.651787,271.554688L124.651787,267.362793L124.412041,267.362793L124.074638,267.95752C122.940552,269.840759,121.124084,271.214905,119.003349,271.793945C116.245911,272.536346,113.328583,272.423615,110.63665,271.470703C107.851868,270.456665,105.507462,268.503845,104.006767,265.948242C102.81073,263.938568,102.060837,261.695038,101.808037,259.370117C101.497177,256.801422,101.639641,254.19812,102.228935,251.678696C102.682053,249.803482,103.501099,248.036285,104.639091,246.4785C106.627731,243.878662,109.569992,242.177795,112.815361,241.751938C114.7882,241.483093,116.794174,241.598648,118.723076,242.09227C120.058731,242.43399,121.304016,243.062317,122.37249,243.933578C123.218643,244.651855,123.912155,245.532471,124.412041,246.523422L124.651787,246.523422L124.518974,245.0952C124.403885,243.707626,124.338257,242.316528,124.322197,240.924301C124.306755,239.644806,124.29705,238.37529,124.2929,237.095688L124.292412,227.719711L132.017517,227.719711L132.017517,271.554688zM116.467216,247.490707L116.07708,247.519028C114.053917,247.701462,112.226013,248.803391,111.120049,250.507309C110.413895,251.605331,109.950142,252.841278,109.759697,254.132797C109.402725,256.314697,109.508354,258.547089,110.069756,260.685547C110.506729,262.325043,111.418251,263.799011,112.689873,264.922363C113.85527,265.908234,115.340469,266.435364,116.866631,266.404785C119.091827,266.452057,121.195709,265.388123,122.476494,263.567871C123.32515,262.36615,123.878242,260.981079,124.090752,259.525391C124.444458,257.40744,124.352493,255.239075,123.820732,253.158676C123.419495,251.575073,122.552094,250.148193,121.330986,249.062973C120.087997,248.004791,118.498558,247.441727,116.866631,247.48143L116.467216,247.490707z"/>
    <path transform="matrix(-1,0,0,1,0,0)" style="stroke:none;fill:#000000;fill-rule:evenodd" d="M185.000427,229.661118C187.219299,229.740128,189.414093,230.148911,191.512634,230.874008C194.07486,231.767578,196.425385,233.179794,198.417419,235.022446C200.35022,236.85025,201.890778,239.052353,202.945251,241.494614C203.939728,243.777985,204.546967,246.210968,204.742126,248.693832C204.969879,251.285217,204.80426,253.896164,204.250916,256.437988C203.589691,259.443146,202.27597,262.266296,200.402771,264.70752C198.558868,267.075439,196.17691,268.969666,193.454529,270.23291C191.157379,271.311432,188.685196,271.968323,186.155701,272.172363C183.883209,272.379974,181.593079,272.277985,179.348083,271.869141C175.289917,271.11734,171.56105,269.136749,168.665955,266.195313C166.803772,264.257568,165.348114,261.966827,164.384705,259.458008C163.478271,257.104553,162.970184,254.616592,162.881287,252.096176C162.75293,249.516846,163.03476,246.93335,163.716248,244.442368C164.533356,241.491669,165.9953,238.759064,167.996521,236.441879C169.992493,234.173157,172.48642,232.397156,175.283142,231.252914C177.275726,230.429581,179.383316,229.918365,181.531677,229.737289C182.685013,229.636063,183.843765,229.610626,185.000427,229.661118zM183.106384,236.539536L182.413025,236.590317C178.943115,236.89949,175.796524,238.754639,173.84613,241.641098C172.284607,243.955307,171.364532,246.642075,171.179626,249.427719C170.989349,251.652176,171.21048,253.892761,171.83197,256.037109C172.450653,258.165314,173.550629,260.122681,175.046814,261.757813C176.985382,263.803986,179.605316,265.07074,182.413025,265.319336C184.240585,265.510132,186.087845,265.326721,187.842224,264.780273C190.489838,263.921814,192.745087,262.147522,194.202576,259.776367C195.554413,257.578308,196.347992,255.082916,196.514099,252.507797C196.704163,250.267044,196.48288,248.0103,195.861267,245.849106C195.310211,243.920853,194.358612,242.130325,193.068787,240.594711C191.070923,238.293503,188.257782,236.85788,185.222107,236.590317C184.518982,236.522919,183.811935,236.505951,183.106384,236.539536z"/>
</svg>
