<?xml version="1.0" encoding="UTF-8" standalone="no"?>
<svg xmlns="http://www.w3.org/2000/svg" xmlns:xlink="http://www.w3.org/1999/xlink" width="122.624mm" height="104.303mm" viewBox="-311.312012 213.000000 122.624008 104.303467">
    <path transform="matrix(-1,0,0,1,0,0)" style="stroke:none;fill:#000000;fill-rule:evenodd" d="M290,253C290,230.908615,272.0914,213,250,213C227.908615,213,210,230.908615,210,253C210,275.0914,227.908615,293,250,293C272.0914,293,290,275.0914,290,253zM251.932495,215.402344L253.844238,215.548279C273.789246,217.592224,288.63092,234.909668,287.597656,254.932495C286.533997,275.699524,268.834229,291.668518,248.067566,290.597656C228.050537,289.572998,212.348938,273.043335,212.352966,253C212.347717,232.956421,228.05011,216.426025,248.067566,215.402344C249.355042,215.336548,250.64502,215.336304,251.932495,215.402344zM259.412384,253.000687C259.412384,247.802719,255.198578,243.588928,250.00061,243.588928C244.802643,243.588928,240.588852,247.802719,240.588852,253.000687C240.588852,258.198669,244.802643,262.412445,250.00061,262.412445C255.198578,262.412445,259.412384,258.198669,259.412384,253.000687zM235.969116,230.333984L237.008301,230.408691C241.313416,230.953003,245.47113,232.330994,249.249207,234.465454C259.232971,239.796875,267.440735,247.930115,272.862488,257.865051C274.33136,260.703064,275.324646,263.762817,275.803101,266.922363C275.51416,267.187134,275.154053,267.359375,274.769104,267.432495C274.336914,267.535583,273.882141,267.482117,273.485229,267.282532L273.429504,266.899414C272.754822,263.004272,271.265381,259.295471,269.059082,256.01532C262.917847,246.202881,253.832092,238.582764,243.100342,234.243713C240.227722,233.161865,237.175781,232.635864,234.10675,232.693848C232.812866,232.787781,231.548584,233.126465,230.380859,233.69165C228.684387,234.644226,227.52655,236.330994,227.249573,238.256836C226.904907,240.280273,227.046387,242.356628,227.661438,244.314941C228.591797,247.786194,230.120056,251.068726,232.177734,254.015076C238.125916,263.039673,246.574707,270.135559,256.491272,274.434998C259.014282,275.434021,261.65979,276.09021,264.357239,276.385803C264.986267,276.432495,265.61792,276.432434,266.246582,276.380676L266.417175,276.581726C266.861511,277.198242,266.957886,277.999939,266.67395,278.704895C264.835327,278.863037,262.983276,278.718872,261.190857,278.279785C257.340637,277.457153,253.64978,276.013855,250.262573,274.007019C240.786255,268.659912,232.998047,260.764038,227.781494,251.21521C226.14209,248.073059,225.103333,244.652832,224.719116,241.129639C224.59198,239.168335,224.924683,237.204712,225.691101,235.394897C226.78833,233.118225,228.834229,231.441284,231.282776,230.81543C232.809021,230.404907,234.391357,230.241882,235.969116,230.333984z"/>
    <path transform="matrix(-1,0,0,1,0,0)" style="stroke:none;fill:#000000;fill-rule:evenodd" d="M265.503052,301.696564L262.077759,301.696564L262.077759,298.696564L265.503052,298.696564L265.503052,301.696564z"/>
    <path transform="matrix(-1,0,0,1,0,0)" style="stroke:none;fill:#000000;fill-rule:evenodd" d="M237.628052,311.296173L237.728149,311.296173L246.353149,299.796173L249.378052,299.796173L249.378052,316.996368L246.027954,316.996368L246.128052,305.496368L246.027954,305.496368L237.353149,316.996368L234.378052,316.996368L234.378052,299.796173L237.728149,299.796173L237.628052,311.296173z"/>
    <path transform="matrix(-1,0,0,1,0,0)" style="stroke:none;fill:#000000;fill-rule:evenodd" d="M258.202759,304.796173L260.503052,304.796173L260.503052,307.196564L258.202759,307.196564L258.202759,312.996368C258.216461,313.625793,258.130096,314.253418,257.946899,314.855743C257.698456,315.69751,257.052673,316.364471,256.21936,316.639923C255.431793,316.897156,254.606186,317.0177,253.777954,316.996368L251.978149,316.996368L251.978149,314.396271L253.378052,314.396271C253.738556,314.414917,254.098145,314.345001,254.425415,314.192657C254.756729,313.988586,254.964767,313.632751,254.980103,313.243927C254.995789,313.120361,255.003464,312.995911,255.003052,312.871368L255.003052,307.196564L251.978149,307.196564L251.978149,304.796173L255.003052,304.796173L255.003052,301.096466L258.202759,301.096466L258.202759,304.796173z"/>
    <path transform="matrix(-1,0,0,1,0,0)" style="stroke:none;fill:#000000;fill-rule:evenodd" d="M265.402954,316.996368L262.177856,316.996368L262.177856,304.796173L265.402954,304.796173L265.402954,316.996368z"/>
    <path transform="matrix(-1,0,0,1,0,0)" style="stroke:none;fill:#000000;fill-rule:evenodd" d="M284.821899,304.505646C285.952423,304.563812,286.974854,305.196838,287.530884,306.182892C287.622131,306.332458,287.70462,306.487183,287.777954,306.646271L287.827759,306.646271L287.827759,304.796173L290.902954,304.796173L290.902954,316.996368L287.677856,316.996368L287.677856,311.171173C287.70639,310.327942,287.533447,309.489899,287.173462,308.726837C286.71228,307.766815,285.672852,307.224823,284.621704,307.396271C284.223022,307.459778,283.837036,307.586365,283.478149,307.771271L282.827759,304.996368C283.211823,304.717316,283.666687,304.551666,284.140259,304.518341C284.366669,304.49408,284.594757,304.489838,284.821899,304.505646z"/>
    <path transform="matrix(-1,0,0,1,0,0)" style="stroke:none;fill:#000000;fill-rule:evenodd" d="M195.024048,304.503204L195.362915,304.524689C196.920517,304.615479,198.382965,305.305054,199.44397,306.449005C200.352005,307.507599,200.889313,308.83374,200.974243,310.225861C201.097046,311.489594,200.9254,312.764709,200.472778,313.950958C199.85379,315.443329,198.576508,316.563812,197.016235,316.983185C195.46048,317.409241,193.818909,317.405182,192.265259,316.971466C191.347183,316.702972,190.521683,316.184662,189.880981,315.474396C189.337585,314.819702,188.974579,314.034607,188.827759,313.196564L191.902954,313.196564L192.030396,313.535431C192.285965,314.08255,192.738434,314.513214,193.297485,314.741486C194.205719,315.061646,195.202438,315.012573,196.074829,314.604767C196.831909,314.199585,197.374817,313.484009,197.561157,312.645782C197.657379,312.2612,197.713348,311.867645,197.728149,311.471466L188.702759,311.471466C188.665253,310.710571,188.699097,309.947723,188.803833,309.193146C188.949783,308.014465,189.481293,306.916931,190.315552,306.071564C191.000336,305.409302,191.849579,304.942017,192.775513,304.718048C193.511108,304.540497,194.268143,304.46814,195.024048,304.503204zM194.382935,306.85672C193.70401,306.872711,193.063736,307.176666,192.622192,307.692657C192.230576,308.226685,191.998505,308.860626,191.952759,309.521271L197.628052,309.521271C197.512527,308.770874,197.157242,308.077942,196.615356,307.546173C196.084015,307.071716,195.38974,306.820984,194.677856,306.846466L194.382935,306.85672z"/>
    <path transform="matrix(-1,0,0,1,0,0)" style="stroke:none;fill:#000000;fill-rule:evenodd" d="M207.001099,302.987091L206.990356,304.208771C206.980743,304.989594,206.934952,305.769592,206.853149,306.546173L206.952759,306.546173L207.093872,306.298126C207.681076,305.340515,208.673996,304.7034,209.789185,304.568634C211.049057,304.361877,212.341827,304.575836,213.467896,305.177521C214.476334,305.746948,215.278046,306.621826,215.757446,307.676056C216.285965,308.835327,216.522522,310.106415,216.446411,311.378204C216.43866,312.579285,216.119995,313.758179,215.521606,314.799591C214.768204,316.058014,213.508545,316.93042,212.065552,317.193146C210.96019,317.408752,209.816315,317.308563,208.765259,316.904083C207.978882,316.591583,207.334015,316.001801,206.952759,315.246368L206.853149,315.246368L206.853149,316.996368L203.777954,316.996368L203.777954,298.696564L207.003052,298.696564L207.001099,302.987091zM209.748169,306.962677C208.888046,307.052216,208.117813,307.535645,207.663208,308.271271C207.2612,308.927368,207.038132,309.677399,207.016235,310.446564C206.9384,311.311218,207.062271,312.182312,207.378052,312.990997C207.694565,313.791229,208.340668,314.416138,209.151001,314.705841C210.062347,315.005707,211.062408,314.848694,211.838013,314.283966C212.461258,313.775604,212.877975,313.057739,213.010376,312.264435C213.228592,311.168976,213.156387,310.035767,212.800903,308.976837C212.572113,308.33017,212.147705,307.770782,211.586548,307.376251C211.040741,307.02829,210.390411,306.881989,209.748169,306.962677z"/>
    <path transform="matrix(-1,0,0,1,0,0)" style="stroke:none;fill:#000000;fill-rule:evenodd" d="M225.664673,304.523712L226.324829,304.605743C227.355804,304.766083,228.3311,305.179077,229.163696,305.807892C230.499985,306.874939,231.320923,308.458771,231.422485,310.165802C231.554916,311.437286,231.364456,312.721832,230.868774,313.900177C230.159637,315.5,228.735657,316.670837,227.028931,317.057404C225.499496,317.435089,223.894363,317.36615,222.402954,316.858673C220.311035,316.085083,218.836853,314.194702,218.596313,311.977325C218.39827,310.594208,218.576385,309.18338,219.111938,307.892853C219.819824,306.292511,221.243927,305.121277,222.950806,304.735626C223.838165,304.519562,224.754547,304.447998,225.664673,304.523712zM224.630493,306.987579C223.640152,307.070099,222.766327,307.668365,222.331177,308.561798C221.988647,309.290924,221.824783,310.091187,221.853149,310.896271C221.828064,311.692719,221.991882,312.483856,222.331177,313.204865C222.706421,314.00827,223.435089,314.590851,224.301392,314.78006C225.064667,314.950165,225.864288,314.825623,226.539673,314.431427C227.212952,313.985504,227.70076,313.309937,227.912231,312.530548C228.245056,311.342438,228.202774,310.080902,227.791138,308.917755C227.51683,308.180908,226.969284,307.577759,226.262329,307.233673C225.74884,307.011688,225.186615,306.92691,224.630493,306.987579z"/>
    <path transform="matrix(-1,0,0,1,0,0)" style="stroke:none;fill:#000000;fill-rule:evenodd" d="M280.902954,316.996368L277.827759,316.996368L277.827759,315.246368L277.728149,315.246368L277.587036,315.494415C276.999725,316.451996,276.006897,317.089233,274.891724,317.224396C273.631805,317.430603,272.339142,317.216461,271.213013,316.615021C270.206909,316.045959,269.405762,315.174255,268.923462,314.12381C268.392761,312.964722,268.156097,311.692596,268.234497,310.420197C268.2435,309.12207,268.616547,307.852356,269.311157,306.755646C270.188354,305.464325,271.605774,304.642273,273.162231,304.522247C274.192963,304.404968,275.236389,304.573425,276.177856,305.009064C276.848297,305.338776,277.3927,305.878571,277.728149,306.546173L277.827759,306.546173L277.772583,305.95047C277.724487,305.371063,277.697144,304.790131,277.690552,304.208771C277.673065,302.373016,277.668854,300.532288,277.677856,298.696564L280.902954,298.696564L280.902954,316.996368zM274.248169,306.962189L273.934204,307.009064C272.98114,307.220764,272.20047,307.900726,271.859985,308.815704C271.410583,310.111542,271.410583,311.519867,271.859985,312.815704C272.12207,313.566193,272.65451,314.192291,273.353149,314.571564C274.547791,315.145569,275.979828,314.82486,276.815552,313.796173C277.270935,313.211151,277.5513,312.509064,277.624146,311.771271C277.769501,310.771362,277.658966,309.751038,277.302856,308.80545C276.987396,308.000275,276.336365,307.372803,275.520142,307.087189C275.108887,306.960266,274.676239,306.917725,274.248169,306.962189z"/>
    <path transform="matrix(-1,0,0,1,0,0)" style="stroke:none;fill:#000000;fill-rule:evenodd" d="M303.022095,299.507111C305.097992,299.553223,307.087402,300.347992,308.623657,301.744904C310.069641,303.141815,310.985565,304.997528,311.214966,306.994904C311.467499,308.809204,311.22525,310.65799,310.513794,312.345978C309.425842,314.864777,307.138428,316.663879,304.434204,317.127716C302.745483,317.44873,301.002502,317.328827,299.373657,316.779572C296.799927,315.87204,294.839661,313.751892,294.136353,311.115021C293.525055,308.905914,293.682404,306.554993,294.582642,304.447052C295.755798,301.794373,298.234833,299.950958,301.112915,299.591095C301.745514,299.50589,302.38446,299.477753,303.022095,299.507111zM302.231567,302.378204L301.942017,302.399689C300.493439,302.5289,299.179871,303.303253,298.365356,304.508087C297.713409,305.474304,297.329285,306.596039,297.252075,307.759064C297.139954,308.978333,297.338013,310.206207,297.827759,311.3284C298.183289,312.154297,298.74118,312.877472,299.449829,313.430939C300.337189,314.094116,301.420349,314.442566,302.527954,314.421173C303.641785,314.44223,304.731567,314.095184,305.628052,313.433868C306.336639,312.888336,306.895599,312.172516,307.253052,311.352814C307.662476,310.4216,307.867126,309.413422,307.853149,308.396271C307.871887,307.193268,307.579041,306.005829,307.003052,304.949493C306.215485,303.502411,304.755951,302.545258,303.114868,302.399689C302.82132,302.371552,302.526123,302.364349,302.231567,302.378204z"/>
</svg>
